<?xml version="1.0" encoding="UTF-8"?>
<!DOCTYPE svg PUBLIC "-//W3C//DTD SVG 1.1//EN" "http://www.w3.org/Graphics/SVG/1.1/DTD/svg11.dtd">
<!-- Creator: CorelDRAW X7 -->
<svg xmlns="http://www.w3.org/2000/svg" xml:space="preserve" width="4.77553cm" height="1.48544cm" version="1.1" style="shape-rendering:geometricPrecision; text-rendering:geometricPrecision; image-rendering:optimizeQuality; fill-rule:evenodd; clip-rule:evenodd"
viewBox="0 0 24834 7725"
 xmlns:xlink="http://www.w3.org/1999/xlink">
 <defs>
  <style type="text/css">
   <![CDATA[
    .fil0 {fill:#FEFEFE}
   ]]>
  </style>
 </defs>
 <g id="Слой_x0020_1">
  <metadata id="CorelCorpID_0Corel-Layer"/>
  <path class="fil0" d="M11724 0c-2133,0 -3862,1729 -3862,3862 0,2133 1729,3863 3862,3863 2134,0 3863,-1730 3863,-3863 0,-2133 -1729,-3862 -3863,-3862zm7724 1944l0 0c227,148 385,309 476,482 90,172 126,349 106,527 -19,178 -79,352 -180,519 -101,169 -229,322 -384,460 -154,140 -321,255 -500,348 -178,92 -353,152 -525,179 -173,27 -330,13 -470,-42 -107,179 -206,351 -298,516 -91,167 -161,318 -211,456 -31,89 -49,190 -53,300 -138,-5 -254,-50 -345,-135 -34,-28 -60,-62 -79,-102 -19,-41 -25,-92 -16,-153 13,-81 51,-179 116,-293 120,-210 245,-424 377,-643 130,-222 254,-437 372,-647 102,-179 195,-365 281,-557 85,-193 153,-383 204,-571 39,-6 87,0 142,18 57,18 112,45 165,81 54,36 96,80 125,133 31,53 37,111 22,176 -33,124 -105,280 -216,471 -111,191 -237,397 -377,618 -16,26 -30,49 -43,71 353,-142 641,-302 863,-479 221,-178 383,-356 486,-534 103,-178 158,-343 165,-493 7,-151 -26,-269 -98,-358 -79,-92 -202,-145 -371,-158 -167,-12 -358,13 -570,73 -213,60 -429,155 -647,283 -219,128 -418,288 -598,479 -179,191 -318,409 -416,655 -60,-47 -116,-101 -169,-162 -53,-61 -93,-128 -120,-202 -28,-74 -31,-155 -11,-244 20,-88 74,-187 162,-296 106,-129 240,-252 403,-369 163,-118 341,-222 535,-313 194,-90 394,-160 597,-207 204,-47 401,-63 590,-49 189,15 359,69 510,162zm1096 2704l-25 33c-144,190 -257,324 -340,402 -83,73 -173,118 -269,136 -97,16 -188,0 -275,-50 -3,-2 -5,-3 -7,-4 -37,-22 -74,-46 -110,-74 -36,-29 -64,-64 -83,-107 -19,-44 -25,-98 -16,-165 16,-83 58,-183 124,-301 124,-216 252,-438 387,-667 138,-230 267,-453 388,-670 106,-185 203,-377 292,-576 89,-199 161,-397 218,-592 41,-5 94,4 157,26 64,23 124,57 179,103 55,46 92,102 112,167 19,66 5,141 -45,224 -192,339 -383,678 -575,1018 -204,361 -408,724 -612,1089 -38,68 -72,135 -101,200 -30,65 -43,117 -41,155 7,48 28,66 64,56 35,-11 73,-34 116,-70 41,-36 75,-68 100,-96 68,-78 162,-196 283,-355 64,-85 131,-174 200,-267 63,-131 143,-258 243,-380 126,-155 271,-290 436,-405 163,-115 335,-199 514,-252 178,-53 354,-61 528,-24 95,21 157,57 184,108 27,52 31,111 12,179 -18,67 -51,137 -98,209 -48,72 -100,141 -156,206 -49,-134 -126,-208 -229,-220 -104,-14 -219,15 -346,86 -127,71 -250,169 -371,292 -119,123 -222,255 -305,394 -84,140 -134,270 -152,392 -4,56 25,66 86,31 61,-35 138,-99 234,-191 94,-92 190,-197 287,-315 96,-118 179,-232 247,-343 31,-55 60,-108 88,-161 56,-7 117,5 181,36 65,31 116,75 150,132 34,57 33,122 -2,196 -4,9 -8,19 -15,30l0 0c-13,20 -29,46 -48,76 -40,65 -86,140 -134,224 -50,84 -92,166 -126,244 -34,79 -50,141 -46,188 7,48 28,66 63,56 35,-11 74,-34 115,-70 42,-36 75,-68 102,-96 68,-78 163,-196 283,-355 64,-85 131,-175 201,-268 116,-199 236,-396 359,-591 103,-159 173,-292 212,-398 46,4 101,24 165,61 63,37 116,83 156,136 41,54 50,107 27,160 -37,63 -97,159 -180,290 -15,26 -32,52 -49,79 105,-131 212,-252 321,-366 109,-113 215,-203 318,-270 102,-67 195,-94 278,-81 39,8 85,33 139,74 55,42 99,89 134,143 35,53 42,102 22,146 -35,63 -94,160 -176,290 -81,129 -166,266 -253,411 -88,146 -163,279 -226,399 -62,120 -93,203 -91,250 7,48 29,66 64,56 35,-11 74,-34 116,-70 41,-36 76,-68 103,-96 66,-78 160,-196 280,-355 121,-159 251,-334 389,-524l0 0c21,-21 45,-32 71,-35 26,-3 45,4 57,20 12,15 8,39 -9,71 -157,223 -307,429 -451,619 -144,190 -258,324 -343,402 -83,73 -172,118 -267,136 -97,16 -188,0 -277,-50l-7 -7c-16,-9 -31,-18 -45,-27 -46,-26 -83,-61 -110,-105 -29,-45 -34,-108 -17,-190 26,-100 94,-245 201,-434 107,-189 222,-382 346,-579 20,-37 43,-75 68,-113 37,-53 65,-98 84,-134 20,-36 21,-53 3,-52 -18,1 -65,31 -143,91 -116,89 -246,211 -392,363 -146,152 -283,309 -409,471 -127,163 -219,306 -277,429 -33,84 -52,151 -56,201 -3,48 0,94 11,136 -116,6 -217,-22 -303,-84 -45,-26 -82,-61 -111,-105 -26,-41 -32,-97 -20,-169 -79,97 -145,171 -199,222 -84,73 -174,118 -271,136 -95,16 -187,0 -275,-50l-7 -7c-17,-9 -32,-18 -45,-27 -46,-26 -83,-61 -111,-105 -29,-45 -33,-108 -16,-190 3,-12 7,-25 10,-37 0,0 0,-1 0,-3 -71,88 -143,166 -216,237 -72,69 -136,120 -194,154 -57,33 -103,39 -141,18 -40,-25 -83,-53 -128,-87 -44,-33 -83,-72 -114,-115 -32,-43 -52,-92 -59,-146 -5,-70 -3,-141 7,-213zm-19328 582l0 0c50,14 103,28 155,43 145,42 291,81 438,117 148,36 296,60 446,72 139,11 279,6 419,-16l244 -433c-25,27 -49,50 -70,70 -82,73 -172,118 -268,136 -98,16 -188,0 -275,-50l-8 -7 0 0c-17,-9 -32,-18 -45,-27 -45,-26 -82,-61 -111,-105 -28,-45 -34,-108 -18,-190 34,-115 115,-283 242,-506 129,-223 262,-444 402,-663 102,-159 172,-292 211,-398 47,4 102,24 166,61 63,37 114,83 155,136 40,54 49,107 27,160 -35,63 -95,159 -177,290 -81,129 -167,269 -257,417 -91,149 -167,284 -229,405 -63,122 -93,206 -91,253 7,48 27,66 63,56 35,-11 73,-34 116,-70 42,-36 75,-68 100,-96 69,-78 163,-196 283,-355 76,-100 156,-207 239,-319 159,-282 317,-562 474,-843 66,-115 142,-242 230,-379 88,-138 184,-270 290,-399 106,-128 215,-236 328,-323 113,-86 226,-138 337,-151 86,-7 151,13 195,62 43,48 81,107 113,177 42,94 36,225 -19,396 -54,170 -141,359 -261,563 -119,205 -256,404 -411,598 -155,193 -311,360 -469,499 -158,140 -303,231 -436,270 22,83 53,148 94,195 41,46 101,63 176,52 77,-11 180,-62 308,-154 128,-98 255,-212 380,-340 81,-83 148,-157 201,-219 74,-156 173,-302 297,-439 143,-158 305,-289 487,-395 182,-105 370,-170 562,-195 81,-10 160,-7 234,10 75,16 135,50 180,101 45,51 65,124 62,219 -9,128 -45,240 -107,333 -63,95 -153,183 -270,266 -89,59 -190,107 -306,142 -115,35 -227,53 -337,54 -110,1 -200,-20 -270,-65 -111,148 -179,290 -205,428 -18,133 4,228 66,282 63,55 155,67 277,38 123,-29 266,-102 432,-220 128,-98 254,-212 379,-340 126,-128 216,-233 275,-312 30,-39 58,-77 84,-116 21,-21 45,-32 71,-35 27,-3 46,4 56,20 12,15 9,39 -9,71l0 0c-31,46 -63,92 -94,137 -88,121 -194,252 -315,390 -122,139 -254,264 -393,375 -140,110 -279,185 -415,224 -39,11 -79,21 -119,31 -104,11 -211,6 -321,-17 -109,-21 -205,-64 -286,-127 -81,-62 -128,-150 -139,-264 -7,-80 -4,-160 9,-241l-40 45c-131,148 -273,278 -426,388 -119,85 -222,135 -308,151 -84,15 -155,8 -211,-24 -11,119 -40,252 -86,399 -46,147 -108,291 -182,431 -75,142 -161,261 -259,362 -99,100 -207,163 -325,190 -118,26 -242,-1 -372,-82 -7,-5 -14,-10 -21,-13 -37,-21 -72,-46 -104,-74 -33,-28 -58,-63 -77,-106 -18,-42 -23,-94 -14,-158 12,-65 40,-140 84,-226 -26,27 -48,48 -69,66 -80,57 -184,80 -310,68 -127,-12 -268,-46 -423,-101 -154,-54 -314,-116 -477,-184 -156,-67 -309,-126 -458,-179 -148,-53 -283,-87 -406,-102 -121,-14 -223,1 -304,47 0,-41 24,-90 74,-147 49,-57 112,-108 190,-153 77,-45 156,-67 237,-67 69,1 138,7 208,16 25,-92 70,-196 134,-314 41,-76 133,-236 275,-480 118,-204 249,-432 396,-686 146,-253 284,-499 418,-738 132,-239 239,-439 318,-600 80,-161 115,-251 105,-270 -25,-16 -86,4 -182,61 -96,56 -211,140 -341,254 -132,113 -261,250 -391,408 -130,160 -238,334 -328,525 -90,191 -140,391 -151,600 -3,0 -25,-11 -65,-34 -38,-23 -85,-56 -139,-99 -53,-43 -104,-96 -150,-158 -47,-62 -79,-133 -97,-211 -17,-78 -8,-164 27,-257 60,-146 160,-296 299,-449 140,-154 300,-297 479,-429 179,-132 356,-238 530,-317 174,-79 326,-118 456,-116 119,0 237,63 353,190 46,48 79,99 99,156 20,56 19,115 -3,176 -81,214 -196,457 -345,724 -149,268 -305,543 -471,824 -147,253 -286,496 -415,729 -129,234 -230,442 -304,624zm4309 -1094l0 0c0,0 0,0 0,0 0,0 0,0 0,0l0 0c0,0 0,0 0,0 0,0 0,0 0,0 116,20 235,13 358,-24 123,-37 222,-92 298,-166 29,-30 50,-67 66,-111 16,-44 19,-81 12,-112 -8,-31 -36,-43 -83,-36 -107,23 -217,75 -331,156 -113,81 -220,178 -320,293zm-1148 -704l0 0c-103,186 -208,372 -313,559 -94,166 -187,334 -283,500 170,-85 323,-193 459,-324 137,-129 260,-271 369,-423 108,-152 199,-303 275,-454 76,-150 134,-289 176,-417 71,-201 108,-335 110,-402 3,-68 -18,-88 -62,-59 -44,30 -101,89 -172,178 -70,90 -143,192 -219,305 -75,114 -144,219 -207,318 -62,98 -106,171 -133,219zm-1532 2824l0 0c7,53 43,62 107,30 64,-32 141,-96 230,-193 88,-95 171,-211 247,-347 77,-137 132,-282 164,-436 33,-154 26,-304 -17,-452 0,0 0,0 0,0 0,0 0,0 0,0 0,0 0,0 0,0 0,0 0,0 0,-2 0,0 0,0 0,0 0,0 0,0 0,0 0,0 0,1 0,2 0,0 0,0 0,0 0,0 0,0 0,0 0,0 0,0 0,0 0,0 0,0 0,0 -195,346 -391,694 -589,1042 -38,68 -72,135 -102,201 -30,64 -43,117 -40,155zm560 -3360l0 0c-39,-17 -64,-34 -74,-51 -10,-17 -10,-39 2,-65 11,-22 23,-50 35,-82 41,-94 86,-196 135,-305 51,-110 95,-184 133,-222 46,-43 103,-61 170,-52 53,9 101,21 147,37 46,17 79,39 100,67 22,27 24,60 6,101 -11,18 -36,57 -78,120 -41,63 -86,131 -136,205 -49,74 -93,137 -132,190 -41,54 -73,91 -97,109 -25,18 -47,26 -68,21 -20,-4 -42,-15 -66,-33 -24,-13 -49,-25 -77,-40zm8319 -693l1 0c617,-618 1620,-618 2239,0 618,618 618,1621 0,2239l-2240 2239 -2239 -2239c-618,-618 -618,-1621 0,-2239 618,-618 1621,-618 2239,0l0 0zm747 747c206,-206 540,-206 746,0 206,206 206,540 0,746l-1493 1493 -1492 -1493c-206,-206 -206,-540 0,-746 206,-206 540,-206 746,0l746 746 747 -746z"/>
 </g>
</svg>
